<svg fill="none" height="32" viewBox="0 0 25 32" width="25" xmlns="http://www.w3.org/2000/svg" xmlns:xlink="http://www.w3.org/1999/xlink"><clipPath id="a"><path d="m0 0h24.8v32h-24.8z"/></clipPath><g clip-path="url(#a)" stroke="#40354e" stroke-linecap="round" stroke-linejoin="round" stroke-width="2.2"><path d="m4.20005 9.29999h16.59995c1.4 0 2.4001 1.10001 2.4001 2.40001v16.6c0 1.4-1.1001 2.4-2.4001 2.4h-16.59995c-1.2.1-2.4-1-2.4-2.2v-16.7c0-1.4 1.1-2.50001 2.4-2.50001z"/><path d="m7.8999 18.7c1.38071 0 2.5-1.1193 2.5-2.5s-1.11929-2.5-2.5-2.5-2.5 1.1193-2.5 2.5 1.11929 2.5 2.5 2.5z"/><path d="m23.1 23.6-5.7-6.3-13.09995 13"/><path d="m3.69995 9.30001c2.1-1.7 4.1-3.4 6.2-5.1"/><path d="m15.1001 4.20001c2.1 1.7 4.1 3.4 6.2 5.1"/><path d="m12.4 5.60002c1.1598 0 2.1-.9402 2.1-2.1 0-1.15979-.9402-2.1-2.1-2.1-1.1597 0-2.1.94021-2.1 2.1 0 1.1598.9403 2.1 2.1 2.1z"/></g></svg>