<svg fill="none" height="27" viewBox="0 0 26 27" width="26" xmlns="http://www.w3.org/2000/svg"><path d="m7.09674 25.387h-3.65804c-.64679 0-1.26708-.257-1.72442-.7143-.45735-.4574-.71428-1.0777-.71428-1.7244v-8.5355c0-.6468.25693-1.267.71428-1.7244.45734-.4573 1.07763-.7143 1.72442-.7143h3.65804m8.53546-2.43866v-4.8774c0-.97017-.3854-1.90061-1.0714-2.58662-.6861-.68602-1.6165-1.07142-2.5867-1.07142l-4.87736 10.9741v13.4129h13.75426c.5881.0066 1.1588-.1995 1.607-.5804.4481-.381.7435-.911.8317-1.4925l1.6827-10.9742c.053-.3495.0295-.7064-.0691-1.0459s-.2698-.6535-.5017-.9202c-.232-.2668-.5192-.47996-.8417-.62471-.3226-.14475-.6727-.21766-1.0262-.21365z" stroke="#40354e" stroke-linecap="round" stroke-linejoin="round" stroke-width="2"/></svg>