<svg xmlns="http://www.w3.org/2000/svg" viewBox="0 0 1359.9 504.8"><defs><style>.cls-1{fill:#fff;}</style></defs><g id="Layer_2" data-name="Layer 2"><g id="Gift_the_Very_Thing" data-name="Gift the Very Thing"><path class="cls-1" d="M310.44,48.74c-26.8,0-43.68,20.22-43.68,55.51,0,35.56,16,56,43.68,56,24.19,0,37.73-12.36,38.18-31.86H312V95.85h79.69v24.46c0,49.64-34,79.16-81.59,79.16-53,0-88.9-36.2-88.9-94.68,0-60.47,39-95.22,88.36-95.22,42.78,0,75.64,26.08,80.15,62.91H344.47C340.5,57.49,328.31,48.74,310.44,48.74Z"/><path class="cls-1" d="M426.15,21c0-11.64,10.2-21,22.66-21s22.65,9.39,22.65,21-10.11,21.12-22.65,21.12S426.15,32.67,426.15,21Zm.55,37.28h44.13V196.94H426.7Z"/><path class="cls-1" d="M577.6,90.8H551.16V196.94h-44V90.8H488.43V58.31h18.69v-7c0-32.14,19.4-47.84,47.65-47.84a122.42,122.42,0,0,1,29.42,3.88l-7,32.31a47.57,47.57,0,0,0-12.45-1.89c-10.29,0-13.54,4.87-13.54,12.81v7.77H577.6Z"/><path class="cls-1" d="M677.16,90.8h-25v62.54c0,8.22,4.06,11.11,11.19,11.11a48.66,48.66,0,0,0,9.66-1.36L679.68,195a92,92,0,0,1-22.56,4c-31.14,1.45-49.37-12.63-49.1-40.7V90.8H589.7V58.31H608V25.09h44.14V58.31h25Z"/><path class="cls-1" d="M832.67,90.8h-25v62.54c0,8.22,4.06,11.11,11.19,11.11a48.66,48.66,0,0,0,9.66-1.36L835.19,195a92,92,0,0,1-22.56,4c-31.14,1.45-49.37-12.63-49.1-40.7V90.8H745.21V58.31h18.32V25.09h44.14V58.31h25Z"/><path class="cls-1" d="M902.25,196.94H858.11V12.09h42.7V83.76h1.53C908.57,66.7,923.19,56.5,944,56.5c29.15,0,48.28,20.67,48.2,52.08v88.36H948v-79.7c.09-15.43-8.12-24.55-22.29-24.55-14,0-23.38,9.39-23.47,25.18Z"/><path class="cls-1" d="M1014.26,128.16c0-43,26.9-71.66,68.78-71.66,39.35,0,67.15,25.09,67.15,70.76v11h-92.43v1.18c0,17,10.47,28.25,27.44,28.25,11.55,0,20.58-5,24-14.18l40.52,1.18c-5,27.26-29,44.86-65.34,44.86C1040.8,199.56,1014.26,172.57,1014.26,128.16Zm94.86-15.52c-.18-14.17-10.65-24.28-25.18-24.28s-25.54,10.47-26.18,24.28Z"/><path class="cls-1" d="M91.34,401.64h1.53l41.34-135.38h50L121.85,451.1H62.37L0,266.26H50Z"/><path class="cls-1" d="M182.05,382.33c0-43,26.9-71.67,68.78-71.67,39.35,0,67.15,25.1,67.15,70.76v11H225.56v1.17c0,17,10.47,28.25,27.43,28.25,11.56,0,20.58-5,24-14.17l40.53,1.17c-5.06,27.26-29,44.86-65.35,44.86C208.59,453.72,182.05,426.73,182.05,382.33Zm94.86-15.53c-.18-14.17-10.65-24.28-25.18-24.28S226.19,353,225.56,366.8Z"/><path class="cls-1" d="M340.63,312.47h42.88v25.27H385c5.05-18.32,17.15-27.17,32.31-27.17a50.63,50.63,0,0,1,12.37,1.63v38.36c-4.25-1.45-12.1-2.35-17.33-2.35-15.8,0-27.53,11.1-27.53,27.62V451.1H340.63Z"/><path class="cls-1" d="M451.92,498.49l9.75-32c13,4.24,22,3.79,26.8-6.14l1.72-4.15L440.91,312.47h46.21l25.54,98.92h1.45L540,312.47l46.48.09L534.23,464.37c-7.67,22.47-23.46,38.54-55.23,38.54C468.44,502.91,458.6,501.1,451.92,498.49Z"/><path class="cls-1" d="M652,266.26H808.25v36.28h-56V451.1h-44V302.54H652Z"/><path class="cls-1" d="M874.32,451.1H830.18V266.26h42.7v71.66h1.53c6.23-17.06,20.85-27.26,41.61-27.26,29.15,0,48.28,20.67,48.19,52.08V451.1H920.08V371.41c.09-15.44-8.12-24.55-22.29-24.55-14,0-23.38,9.38-23.47,25.18Z"/><path class="cls-1" d="M991.11,275.19c0-11.64,10.2-21,22.66-21s22.65,9.39,22.65,21-10.11,21.12-22.65,21.12S991.11,286.84,991.11,275.19Zm.54,37.28h44.14V451.1H991.65Z"/><path class="cls-1" d="M1107.91,451.1h-44.14V312.47h42v25.45h1.53c6.14-16.88,21.67-27.26,42.15-27.26,29.16,0,48.2,20.85,48.11,52.08V451.1H1153.4V371.41c.09-15.35-8.22-24.55-22.21-24.55S1108,356.24,1107.91,372Z"/><path class="cls-1" d="M1224,463.74l41.79-2.35c2.34,7.4,10.83,12.82,25,12.82,14.8,0,25.63-6.32,25.63-22.93V426.91h-1.53c-5.24,12.82-18.87,22.3-39.27,22.3-30.41,0-55.41-20.49-55.41-67.61,0-48.64,26.26-70.94,55.23-70.94,21.85,0,33.94,12.82,39.27,25.55H1316V312.47h44V451.64c0,34.12-28.52,53.16-70.31,53.16C1250.06,504.8,1227.23,486.84,1224,463.74Zm92.51-82.14c0-22.47-9.39-36.46-25.54-36.46-16.43,0-25.45,14.35-25.45,36.46s9.11,35.48,25.45,35.48C1307,417.08,1316.49,403.9,1316.49,381.6Z"/></g></g></svg>