<svg width="1035" height="435" viewBox="0 0 1035 435" fill="none" xmlns="http://www.w3.org/2000/svg">
<path d="M105.188 182H143.629V106.893H217.582V75.1997H143.629V31.8758H225.572V0.181885H105.188V182ZM302.321 184.663C343.691 184.663 369.437 156.343 369.437 114.351C369.437 72.0924 343.691 43.8609 302.321 43.8609C260.95 43.8609 235.204 72.0924 235.204 114.351C235.204 156.343 260.95 184.663 302.321 184.663ZM302.498 155.366C283.411 155.366 273.645 137.877 273.645 114.085C273.645 90.292 283.411 72.7139 302.498 72.7139C321.231 72.7139 330.996 90.292 330.996 114.085C330.996 137.877 321.231 155.366 302.498 155.366ZM394.029 182H431.848V104.852C431.848 88.0725 444.1 76.5313 460.79 76.5313C466.028 76.5313 473.219 77.4191 476.77 78.5732V45.015C473.397 44.216 468.691 43.6833 464.874 43.6833C449.604 43.6833 437.086 52.5612 432.115 69.4291H430.694V45.6365H394.029V182ZM626.717 45.6365H601.06V12.966H563.24V45.6365H544.597V74.0456H563.24V145.068C563.063 171.79 581.262 185.018 608.695 183.864C618.461 183.509 625.385 181.556 629.203 180.313L623.255 152.17C621.39 152.526 617.395 153.413 613.844 153.413C606.298 153.413 601.06 150.572 601.06 140.097V74.0456H626.717V45.6365ZM692.102 103.165C692.191 85.5867 702.933 75.2885 718.381 75.2885C733.739 75.2885 742.795 85.1429 742.706 101.922V182H780.526V95.1748C780.614 63.2146 761.793 43.8609 733.384 43.8609C712.699 43.8609 698.849 53.6265 692.635 69.6954H691.037V0.181885H654.283V182H692.102V103.165ZM872.433 184.663C906.169 184.663 928.897 168.239 934.223 142.938L899.245 140.629C895.427 151.016 885.661 156.432 873.055 156.432C854.145 156.432 842.16 143.914 842.16 123.584V123.495H935.022V113.108C935.022 66.7657 906.968 43.8609 870.924 43.8609C830.796 43.8609 804.784 72.3588 804.784 114.44C804.784 157.675 830.441 184.663 872.433 184.663ZM842.16 100.058C842.959 84.5214 854.767 72.0924 871.546 72.0924C887.97 72.0924 899.333 83.8112 899.422 100.058H842.16ZM152.651 250.182H114.388V364.528H112.79L34.31 250.182H0.574219V432H39.0152V317.565H40.3469L119.448 432H152.651V250.182ZM245.847 434.663C279.582 434.663 302.31 418.239 307.636 392.938L272.658 390.629C268.84 401.016 259.075 406.432 246.468 406.432C227.558 406.432 215.573 393.914 215.573 373.584V373.495H308.435V363.108C308.435 316.766 280.381 293.861 244.337 293.861C204.209 293.861 178.197 322.359 178.197 364.44C178.197 407.675 203.854 434.663 245.847 434.663ZM215.573 350.058C216.372 334.521 228.18 322.092 244.959 322.092C261.383 322.092 272.746 333.811 272.835 350.058H215.573ZM359.039 432H398.989L422.427 346.24H424.114L447.551 432H487.59L524.611 295.636H486.436L465.662 386.723H464.508L442.136 295.636H404.582L382.565 387.256H381.322L360.193 295.636H321.93L359.039 432ZM592.704 250.182L659.021 367.724V432H697.196V367.724L763.513 250.182H720.456L678.996 328.484H677.221L635.761 250.182H592.704ZM817.091 434.663C858.462 434.663 884.208 406.343 884.208 364.351C884.208 322.092 858.462 293.861 817.091 293.861C775.72 293.861 749.975 322.092 749.975 364.351C749.975 406.343 775.72 434.663 817.091 434.663ZM817.269 405.366C798.181 405.366 788.416 387.877 788.416 364.085C788.416 340.292 798.181 322.714 817.269 322.714C836.001 322.714 845.767 340.292 845.767 364.085C845.767 387.877 836.001 405.366 817.269 405.366ZM996.246 373.939C996.335 392.227 983.817 401.815 970.234 401.815C955.941 401.815 946.708 391.783 946.619 375.714V295.636H908.799V382.462C908.888 414.333 927.532 433.776 954.964 433.776C975.472 433.776 990.209 423.211 996.335 407.231H997.755V432H1034.07V295.636H996.246V373.939Z" fill="#19124F"/>
</svg>
